<svg xmlns="http://www.w3.org/2000/svg" viewBox="0 0 443.12 719.29"><title>Asset 1</title><g id="Layer_2" data-name="Layer 2"><g id="Layer_1-2" data-name="Layer 1"><path d="M50,40H338c-6.4-8.4-12.9-16.9-19.3-25.3-8.1,23.4-16.1,46.7-24.2,70.1q-19.2,55.65-38.4,111.2c-3,8.6-5.9,17.2-8.9,25.7-4.3,12.4,7,25.3,19.3,25.3h156.4c-5.8-10-11.5-20.1-17.3-30.1-10.5,15.7-20.9,31.4-31.4,47.1q-37.65,56.55-75.3,113-45.45,68.1-90.8,136.2-39.3,58.95-78.5,117.8c-12.7,19.1-26.3,37.9-38.3,57.5a3.51,3.51,0,0,0-.5.8c12.4,3.4,24.8,6.7,37.3,10.1,3.4-36.4,6.8-72.9,10.2-109.3q8.1-86.4,16.1-172.7c1.2-13.1,2.4-26.2,3.7-39.3,1-10.8-10-20-20-20h-118l20,20c1-11.8,2-23.6,3-35.5,2.4-28.6,4.8-57.1,7.2-85.7L59,153.7c2.5-29.8,5-59.5,7.5-89.3,1.2-14.5,3.1-29.1,3.7-43.7a1.27,1.27,0,0,1,.1-.6c.9-10.5-9.8-20.5-20-20-11.6.5-19.1,8.8-20,20-1,11.8-2,23.6-3,35.5-2.4,28.6-4.8,57.1-7.2,85.7l-8.7,103.2c-2.5,29.8-5,59.5-7.5,89.3-1.2,14.5-3.1,29.1-3.7,43.7a1.27,1.27,0,0,1-.1.6c-.9,10.8,9.9,20,20,20h118l-20-20c-3.4,36.4-6.8,72.9-10.2,109.3q-8.1,86.4-16.1,172.7c-1.2,13.1-2.4,26.2-3.7,39.3-.8,8.3,6.7,17.5,14.7,19.3,9,2.1,17.5-1.5,22.6-9.2,10.5-15.7,20.9-31.4,31.4-47.1q37.65-56.55,75.3-113,45.45-68.1,90.8-136.2,39.3-58.95,78.5-117.8c12.7-19.1,26.2-37.9,38.3-57.5a3.51,3.51,0,0,0,.5-.8c8.6-12.9-2.8-30.1-17.3-30.1H266.45c6.4,8.4,12.9,16.9,19.3,25.3,8.1-23.4,16.1-46.7,24.2-70.1q19.2-55.65,38.4-111.2c3-8.6,5.9-17.2,8.9-25.7,4.3-12.4-7-25.3-19.3-25.3H50c-10.5,0-20.5,9.2-20,20S38.65,40,50,40Z"/></g></g></svg>