<svg xmlns="http://www.w3.org/2000/svg" viewBox="0 0 31.49 39.89"><title>Asset 2</title><g id="Layer_2" data-name="Layer 2"><g id="Layer_1-2" data-name="Layer 1"><path d="M0,5.44V38.36a1.5,1.5,0,0,0,2.55,1.1L15.17,27.74a.87.87,0,0,1,1.17,0L29,39.46a1.51,1.51,0,0,0,1,.4,1.41,1.41,0,0,0,.6-.13,1.5,1.5,0,0,0,.9-1.37V5.44A5.45,5.45,0,0,0,26.05,0H5.44A5.45,5.45,0,0,0,0,5.44Zm28.51,0V34.92L18.38,25.54a3.89,3.89,0,0,0-5.25,0L3,34.92V5.44A2.45,2.45,0,0,1,5.44,3H26.07a2.45,2.45,0,0,1,2.48,2.42v0Z"/></g></g></svg>