<svg xmlns="http://www.w3.org/2000/svg" viewBox="0 0 37.96 42.64"><title>Asset 1</title><g id="Layer_2" data-name="Layer 2"><g id="Layer_1-2" data-name="Layer 1"><path d="M31,63c-3.74.7-7.68-.56-11.14-3.59-4.55-4-6.46-9.26-6.82-15-.45-7.08.88-13.72,6.31-19C27.73,17.31,45,19,49.51,33.31A27.47,27.47,0,0,1,49.77,50C46.75,59.57,41.77,63,31,63Zm1.22-10.26v.07c1.41-.09,2.83-.12,4.23-.29,4.12-.5,7.45-2.91,8-6.42,1-5.71.58-11.28-3.06-16.2-4.56-6.15-14.81-6-19.24.25A19.81,19.81,0,0,0,18.91,40.5c-.58,8.11,2.95,11.92,11.1,12.26C30.75,52.79,31.5,52.76,32.25,52.76Z" transform="translate(-12.98 -20.57)"/></g></g></svg>