<svg xmlns="http://www.w3.org/2000/svg" viewBox="0 0 29.18 26.95"><title>Asset 1</title><g id="Layer_2" data-name="Layer 2"><g id="Layer_1-2" data-name="Layer 1"><path d="M28.92,6.06A8,8,0,0,0,24.66.78,7,7,0,0,0,21.5,0c-3,0-5.45,1.84-6.86,3.14C13.23,1.83,10.73,0,7.78,0A7,7,0,0,0,4.5.78,8,8,0,0,0,.26,6.06a11,11,0,0,0,1.63,8.53A53.17,53.17,0,0,0,13.72,26.68a1.54,1.54,0,0,0,.87.27,1.56,1.56,0,0,0,.9-.29,53.19,53.19,0,0,0,11.8-12.07,11,11,0,0,0,1.63-8.53m-3.34,7.37a51,51,0,0,1-11,11.35,51,51,0,0,1-11-11.33A8.86,8.86,0,0,1,2.27,6.57,6,6,0,0,1,5.5,2.63a4.93,4.93,0,0,1,2.27-.56c2.78,0,5.2,2.26,6.1,3.24a1,1,0,0,0,.76.33h0a1,1,0,0,0,.76-.33c.91-1,3.32-3.24,6.1-3.24a4.94,4.94,0,0,1,2.27.56,6,6,0,0,1,3.19,3.94,8.87,8.87,0,0,1-1.33,6.86"/></g></g></svg>