<svg xmlns="http://www.w3.org/2000/svg" viewBox="0 0 94.95 83.6"><title>Asset 1</title><g id="Layer_2" data-name="Layer 2"><g id="Layer_1-2" data-name="Layer 1"><path d="M93.45,74.2,77.05,56.4A5.76,5.76,0,0,0,73,54.6H58.05a2.69,2.69,0,0,0-2.7,2.7h0a2.69,2.69,0,0,0,2.7,2.7h15.1l16.4,18a.1.1,0,0,1-.1.1H5.55l-.1-.2L22,60h14.9a2.7,2.7,0,1,0,0-5.4H22a5.59,5.59,0,0,0-4.1,1.8L1.45,74.2a5.57,5.57,0,0,0-.8,6.4,5.88,5.88,0,0,0,5.2,3h83.2a5.88,5.88,0,0,0,5.2-3A5.45,5.45,0,0,0,93.45,74.2Z"/><path d="M33.65,27.4a9.21,9.21,0,0,0-1.8,5.4,9.39,9.39,0,0,0,9.4,9.4,10.87,10.87,0,0,0,2.6-.4V65a3.6,3.6,0,0,0,7.2,0V41.9a10.87,10.87,0,0,0,2.6.4,9.39,9.39,0,0,0,9.4-9.4,9.21,9.21,0,0,0-1.8-5.4,10.2,10.2,0,0,0,3.1-7.3A10,10,0,0,0,59,11.3a11.5,11.5,0,0,0-23-.1,10.08,10.08,0,0,0-2.3,16.2Z"/></g></g></svg>