<svg xmlns="http://www.w3.org/2000/svg" viewBox="0 0 59.89 60.05"><title>Asset 1</title><g id="Layer_2" data-name="Layer 2"><g id="Layer_1-2" data-name="Layer 1"><path d="M13,60.05a13.11,13.11,0,0,0,9.2-3.8L35.38,43a13.33,13.33,0,0,0,4-8.6,14.33,14.33,0,0,0-1.4-6.8,3,3,0,0,0-4.8-.7h0a3.17,3.17,0,0,0-.5,3.6,6.32,6.32,0,0,1,.7,3.6,6.71,6.71,0,0,1-2.2,4.6L18,51.75a7.22,7.22,0,0,1-9.7.5A6.91,6.91,0,0,1,8,42.05l8.9-8.9a3.12,3.12,0,0,0,.2-4.3,3.05,3.05,0,0,0-4.4-.1L4,37.55a13.1,13.1,0,0,0-.3,18.5A12.57,12.57,0,0,0,13,60.05Z"/><path d="M27.38,29.55a6.32,6.32,0,0,1-.7-3.6,6.71,6.71,0,0,1,2.2-4.6L42,8.15a7.22,7.22,0,0,1,9.7-.5,6.91,6.91,0,0,1,.3,10.2l-8.9,8.9a3.12,3.12,0,0,0-.2,4.3,3.05,3.05,0,0,0,4.4.1l8.7-8.7a13.37,13.37,0,0,0,.1-18.8,12.92,12.92,0,0,0-18.2.2L24.58,17a13.33,13.33,0,0,0-4,8.6,14.33,14.33,0,0,0,1.4,6.8,3,3,0,0,0,4.8.7h0A2.89,2.89,0,0,0,27.38,29.55Z"/></g></g></svg>