<svg xmlns="http://www.w3.org/2000/svg" viewBox="0 0 92.13 50.6"><title>Asset 1</title><g id="Layer_2" data-name="Layer 2"><g id="Layer_1-2" data-name="Layer 1"><path d="M91.15,1.64A4.49,4.49,0,0,0,84.83,1l-.32.29L58.34,27.48a4.48,4.48,0,0,0,0,6.34h0a4.48,4.48,0,0,0,6.34,0h0l26-26A4.61,4.61,0,0,0,91.15,1.64Z"/><path d="M48.83,37l-2.78,2.77L7.61,1.31a4.49,4.49,0,0,0-6.35,0q-.15.15-.29.32A4.62,4.62,0,0,0,1.4,7.79L39.71,46.11l3.17,3.18a4.48,4.48,0,0,0,6.34,0h0l3.18-3.18,2.77-2.77A4.48,4.48,0,0,0,48.83,37Z"/></g></g></svg>