<svg xmlns="http://www.w3.org/2000/svg" viewBox="0 0 84.4 72.4"><title>Asset 1</title><g id="Layer_2" data-name="Layer 2"><g id="Layer_1-2" data-name="Layer 1"><path d="M84.4,49.8H69L68.6,0H0V59.1A13.3,13.3,0,0,0,13.3,72.4H71.6A13.3,13.3,0,0,0,84.4,59.1ZM13.3,68.4A9.3,9.3,0,0,1,4,59.1H4V3.9H64.6L65,49.7H22.7V59a9.3,9.3,0,0,1-9.2,9.4Zm67.1-9.3a9.3,9.3,0,0,1-9.3,9.3H22.8a13.3,13.3,0,0,0,3.8-9.3V53.8H80.4Z"/><rect x="14" y="13.1" width="21.5" height="4"/><rect x="14" y="25.1" width="41.5" height="4"/><rect x="14" y="37.1" width="41.5" height="4"/></g></g></svg>