<svg xmlns="http://www.w3.org/2000/svg" viewBox="0 0 88 88"><title>Asset 1</title><g id="Layer_2" data-name="Layer 2"><g id="Layer_1-2" data-name="Layer 1"><path d="M42.2,0a9.29,9.29,0,0,0-3.68.57,4.48,4.48,0,0,0-2.75,2.74,4.5,4.5,0,0,0,1.65,4.61,9.18,9.18,0,0,0,1.9,1.27l-5.11,10.4a2,2,0,0,0-1.54,2v1.16L16.11,56.45c-3.56-1.19-7.11-2.61-10.48-4a2,2,0,0,0-1.87,1.43C2.48,58.28.53,64.09.09,69.53A17.14,17.14,0,0,0,1,77.31a9.85,9.85,0,0,0,5.61,5.55,11,11,0,0,0,8.17-.1,21.83,21.83,0,0,0,6.88-4.69c4.18-4,7.72-9.15,10.38-12.56a2,2,0,0,0-.84-3.09L19.85,57.93,32.67,31.81V86a2,2,0,1,0,4,0V23.66l6.49-13.23a8.6,8.6,0,0,0,6.61-1.08,4,4,0,0,0,1.72-3.26,4.82,4.82,0,0,0-1.82-3.42A11.7,11.7,0,0,0,42.2,0Zm-.1,4A8.61,8.61,0,0,1,47,5.66c.42.38.39.45.39.45a6.54,6.54,0,0,1-4.33.23,7.37,7.37,0,0,1-3-1.41,2.37,2.37,0,0,1-.42-.46A1.43,1.43,0,0,1,40,4.29,5.83,5.83,0,0,1,42.1,4ZM72.86,8A7.79,7.79,0,0,0,65.7,12.3a6.72,6.72,0,0,0,1.74,7.89,8.29,8.29,0,0,0,8.3,1.47,7.13,7.13,0,0,0,4.89-6.56c0-4-3.64-7.07-7.78-7.07Zm0,4c2.25,0,3.78,1.5,3.78,3.07a3,3,0,0,1-2.25,2.8,4.3,4.3,0,0,1-4.3-.72A2.43,2.43,0,0,1,69.32,14,3.7,3.7,0,0,1,72.86,12ZM86,19.54a2,2,0,0,0-2,2V86a2,2,0,1,0,4,0V21.57A2,2,0,0,0,86,19.54ZM39.79,22.41a2,2,0,0,0-2,2V42a2,2,0,0,0,2,2H80.88a2,2,0,0,0,2-2V24.41a2,2,0,0,0-2-2Zm2,4h7.95l-7.95,12.8Zm12.65,0H62.2L53.75,40H46Zm12.47,0h7.62L66.08,40H58.46Zm12,.59V40H70.79ZM7,57.15l20.25,8a83.07,83.07,0,0,1-8.37,10A18.36,18.36,0,0,1,13.28,79a6.71,6.71,0,0,1-5.24.1,5.44,5.44,0,0,1-3.36-3.31,13.64,13.64,0,0,1-.6-6c.33-4,1.7-8.63,2.92-12.71Zm32.8,3.79a2,2,0,0,0-2,2v9.61a2,2,0,0,0,2,2H80.88a2,2,0,0,0,2-2V62.94a2,2,0,0,0-2-2Zm2,4H78.88v5.61H41.79Z"/></g></g></svg>