<svg xmlns="http://www.w3.org/2000/svg" viewBox="0 0 34.54 45.39"><title>Asset 1</title><g id="Layer_2" data-name="Layer 2"><g id="Layer_1-2" data-name="Layer 1"><path d="M34.54,18.46a5.87,5.87,0,0,0-5.86-5.86H24a1.5,1.5,0,0,0,0,3h4.71a2.86,2.86,0,0,1,2.86,2.86h0V39.53a2.86,2.86,0,0,1-2.86,2.86H5.86A2.86,2.86,0,0,1,3,39.53H3V18.46A2.86,2.86,0,0,1,5.86,15.6h4.71a1.5,1.5,0,0,0,0-3H5.86A5.87,5.87,0,0,0,0,18.46V39.53a5.87,5.87,0,0,0,5.86,5.86H28.68a5.87,5.87,0,0,0,5.86-5.86Z"/><path d="M17.28,24.73a1.5,1.5,0,0,0,1.5-1.5v-18l3.33,3.36a1.53,1.53,0,0,0,2.17-2.15h0L18.57.67A1.51,1.51,0,0,0,17.28,0h0a1.36,1.36,0,0,0-1.07.44L10.28,6.27A1.5,1.5,0,1,0,12.4,8.4l3.34-3.33V23.23a1.5,1.5,0,0,0,1.5,1.5Z"/></g></g></svg>