<svg xmlns="http://www.w3.org/2000/svg" viewBox="0 0 76.9 94.94"><title>Asset 1</title><g id="Layer_2" data-name="Layer 2"><g id="Layer_1-2" data-name="Layer 1"><path d="M60.43,65.24c-.7.2-2.6.7-4.8,1.3-.8-2.7-2.1-5.3-4.4-6.4-3-1.4-7.2-1.2-10.9-1.1a61.35,61.35,0,0,1,8.6-20.2,21.55,21.55,0,0,0,10.4,2.9,14.69,14.69,0,0,0,8.3-2.4c10.3-7.1,9.3-32,9.2-34.8a4.76,4.76,0,0,0-3.1-4.2,4.65,4.65,0,0,0-5.1,1.1c-4.1,4.2-9.2,6.5-14.1,8.8-7.1,3.3-13.8,6.5-14.5,14.6-.4,3.8,1.3,7.6,4.5,10.8a52.35,52.35,0,0,0-4.7,8.5,36.43,36.43,0,0,0-6.4-9.2,9.88,9.88,0,0,0,1.8-7.5c-1.1-6.2-6.6-8.2-11.9-10.1-3.6-1.3-7.3-2.6-10.4-5.3h0a4.13,4.13,0,0,0-4.5-.6A4.32,4.32,0,0,0,6,15.34c.1,2.1,1,20.4,9.3,25a10.67,10.67,0,0,0,5.3,1.3,15.59,15.59,0,0,0,8.9-3,27.77,27.77,0,0,1,7.3,13.1c-.7,2.3-1.4,4.7-2,7.3a57.2,57.2,0,0,0-6.2.3c-4,.6-12.1,5.1-17.2,8.9-1.7,1.3-4.7,3.9-7.4,6.2-1,.9-1.9,1.7-2.6,2.3a4,4,0,0,0-.5,5.6l9.4,11.2a3.82,3.82,0,0,0,2.8,1.4h.3a3.86,3.86,0,0,0,2.7-1.1l5.3-4.9a67.4,67.4,0,0,0,15.8,2.5h.1c6.1,0,16-3.9,29.6-11.6a8.06,8.06,0,0,0,3.3-10.2A7.89,7.89,0,0,0,60.43,65.24Zm-42.6-29.6c-3.4-1.9-5.7-10.2-6.4-17.9a42.3,42.3,0,0,0,10,4.6c5.2,1.9,7.9,3,8.4,6a4.27,4.27,0,0,1-.6,2.9,35.21,35.21,0,0,0-8.1-4.9,2.69,2.69,0,0,0-2,5,31.36,31.36,0,0,1,6.1,3.6C22.63,36.34,19.73,36.64,17.83,35.64Zm27.5-10.3c.4-4.8,4.5-6.9,11.5-10.1,4.7-2.2,10-4.7,14.6-8.9.4,11.6-1.9,25.1-7,28.6-3.5,2.4-8.5,1.5-12.4-.4,5.7-7.1,11-10,11.1-10a2.66,2.66,0,0,0-2.5-4.7c-.5.2-6.6,3.5-13,11.5C46.23,29.44,45.13,27.44,45.33,25.34ZM13.43,89l-7.5-9c.5-.4,1-.9,1.6-1.4s1.2-1,1.8-1.6l7.4,8.9Zm50.8-13.8c-15.9,9-23.4,10.9-27,10.9h-.1a66.44,66.44,0,0,1-14.4-2.3,2.2,2.2,0,0,0-.8-.1l-8.5-10.2a10.63,10.63,0,0,0,1.1-.9c5.2-3.9,12.4-7.5,14.8-7.9a37.69,37.69,0,0,1,6.2-.3c1.3,0,4.9-.1,4.9-.1,2.9-.1,6.6-.3,8.5.6.4.2,1,1.2,1.5,2.9-1.8.5-3.4.9-4.4,1.2a56.41,56.41,0,0,1-10,.5h-.7a2.59,2.59,0,0,0-2.9,2.5,2.69,2.69,0,0,0,2.6,2.8h.7a51.9,51.9,0,0,0,11.5-.6h0c4.1-.9,7-1.8,7.2-1.8,0,0,6.7-1.9,7.5-2.1,2.1-.6,3,.6,3.3,1.4A2.86,2.86,0,0,1,64.23,75.24Z"/></g></g></svg>