<svg xmlns="http://www.w3.org/2000/svg" viewBox="0 0 55.68 56.18"><title>Asset 1</title><g id="Layer_2" data-name="Layer 2"><g id="Layer_1-2" data-name="Layer 1"><path d="M45.65,74a62.47,62.47,0,0,1-6.87-.09c-.68-.08-1.52-1.16-1.79-1.95-2.3-6.88-.84-5.44-7.5-5.56-2.55,0-5.69-.6-7.49.63s-2.2,4.41-3.26,6.82H10.58L15.91,59c2.33-6.47,4.74-12.92,6.94-19.43.74-2.18,1.69-3.27,4.21-3.2,5.51.17,5.53,0,7.47,5.42q5.4,15,10.77,30A13.3,13.3,0,0,1,45.65,74ZM28.91,46.81l-.81-.09c-1.26,3.8-2.58,7.59-3.68,11.43-.12.41,1,1.61,1.64,1.71a33.4,33.4,0,0,0,5,.09c1.5,0,1.9-.75,1.47-2.09Q30.71,52.33,28.91,46.81Z" transform="translate(-10.58 -17.87)"/><path d="M55.85,39.28c-2,.22-3-.67-2.73-2.73a4.44,4.44,0,0,0,0-.5c0-5.16.37-4.73-4.74-4.63-2.09,0-3-.53-3-2.78s1.22-2.48,3-2.48c4.75,0,4.76.72,4.75-5,0-2.93.49-3.36,3-3.33,1.5,0,2.07.71,2.17,2.1.13,1.88-.31,4.39.72,5.44s3.54.62,5.4.8c1.5.15,1.93,1.05,1.84,2.41s-.19,2.56-1.89,2.71c-.5,0-1,0-1.49,0-4.51.05-4.52.05-4.54,4.68C58.32,37.78,58.52,39.61,55.85,39.28Z" transform="translate(-10.58 -17.87)"/><path d="M54.76,53h-8c-1.39,0-2.4-.33-2.42-2.08s1.07-2,2.43-2H63c1.38,0,2.43.22,2.41,2S64.36,53,63,53Z" transform="translate(-10.58 -17.87)"/></g></g></svg>