<svg xmlns="http://www.w3.org/2000/svg" viewBox="0 0 92.31 92.31"><title>Asset 1</title><g id="Layer_2" data-name="Layer 2"><g id="Layer_1-2" data-name="Layer 1"><path d="M92.31,39.56l-2.64-2.64-6.59,6.59L48.79,9.23l6.6-6.59L52.75,0,46.16,6.6,39.56,0,36.93,2.64l6.59,6.59L9.23,43.52l-6.6-6.6L0,39.56l6.59,6.59L0,52.75l2.64,2.64,6.6-6.6L43.52,83.08l-6.59,6.59,2.63,2.64,6.6-6.6,6.6,6.6,2.64-2.64-6.6-6.6L83.08,48.8l6.59,6.59,2.64-2.64-6.59-6.59ZM46.16,80.45,11.87,46.16,46.16,11.87,80.44,46.16Z"/></g></g></svg>