<svg xmlns="http://www.w3.org/2000/svg" viewBox="0 0 459.71 512"><title>Asset 1</title><g id="Layer_2" data-name="Layer 2"><g id="Layer_1-2" data-name="Layer 1"><path d="M0,448.74C0,474.06,10.37,494.57,28.44,505a52.93,52.93,0,0,0,26.71,7c11.73,0,24.13-3.52,36.23-10.51L425.21,308.76c21.93-12.66,34.5-31.89,34.5-52.76s-12.58-40.1-34.5-52.76L91.38,10.5C69.45-2.16,46.51-3.43,28.44,7S0,37.94,0,63.26ZM53.71,63.26c0-5.35,1-8.39,1.68-9.58,1.35,0,4.5.66,9.13,3.33L398.36,249.76c4.63,2.68,6.75,5.09,7.45,6.24-.71,1.15-2.82,3.57-7.45,6.24L64.53,455c-4.63,2.67-7.79,3.29-9.13,3.33-.64-1.19-1.68-4.22-1.68-9.58V63.26Z"/></g></g></svg>